<?xml version="1.0" encoding="UTF-8"?>
<svg width="166px" height="181px" viewBox="0 0 166 181" version="1.1" xmlns="http://www.w3.org/2000/svg" xmlns:xlink="http://www.w3.org/1999/xlink">
    <!-- Generator: Sketch 43.2 (39069) - http://www.bohemiancoding.com/sketch -->
    <title>man</title>
    <desc>Created with Sketch.</desc>
    <defs></defs>
    <g id="Page-1" stroke="none" stroke-width="1" fill="none" fill-rule="evenodd">
        <g id="man" fill="#000000">
            <path d="M110.1537,21.2045 C120.9527,14.4815 131.3697,7.9965 142.7647,0.9015 C141.7887,9.6995 141.0347,17.3975 140.0377,25.0645 C139.5607,28.7225 140.3157,31.7815 142.3617,34.9025 C149.5737,45.9085 156.5477,57.0695 163.5997,68.1795 C164.5717,69.7105 165.8617,71.1215 165.8627,73.0895 C165.8717,87.2395 165.8677,101.3885 165.8677,115.6455 C161.9467,116.5365 158.3637,116.3315 154.2027,115.8035 C154.2027,104.2415 154.0437,92.7865 154.2837,81.3395 C154.3757,76.9665 153.3327,73.3125 150.9117,69.6855 C145.3637,61.3755 140.0907,52.8805 134.7757,44.4155 C130.9617,38.3435 125.3137,32.8835 128.8707,24.2055 C128.4367,24.1995 128.0037,24.1925 127.5697,24.1865 C121.7987,27.7095 116.0277,31.2325 110.1247,34.8365 C104.1887,31.2365 98.3987,27.7255 92.2767,24.0125 C91.1947,28.9585 93.3047,33.2905 92.7577,38.2135 L74.2777,38.2135 C62.9447,38.2125 51.6097,38.3215 40.2797,38.1415 C37.0437,38.0895 35.1147,39.1895 33.4117,41.9095 C27.1357,51.9315 20.6917,61.8505 14.1777,71.7205 C12.6347,74.0585 11.9897,76.3865 12.0147,79.1725 C12.1237,91.3225 12.0607,103.4735 12.0607,115.7275 C8.1287,116.4385 4.5587,116.4305 0.5597,115.7355 C0.5597,101.2775 0.5537,86.9805 0.5677,72.6845 C0.5697,71.0925 1.5647,69.8865 2.3737,68.6345 C10.6807,55.7595 19.0667,42.9325 27.2577,29.9835 C28.8047,27.5385 30.5437,26.7295 33.3417,26.7545 C46.8407,26.8785 60.3407,26.8105 73.8407,26.8105 L80.0517,26.8105 C79.1367,18.3245 78.2737,10.3135 77.2767,1.0545 C88.6067,7.9985 99.2367,14.5135 110.1537,21.2045" id="Fill-8"></path>
            <path d="M125.1303,67.1283 C126.4773,75.4473 127.6933,82.9643 129.0023,91.0433 L148.6043,91.0433 C148.6043,99.9133 148.7053,108.1943 148.5813,116.4713 C148.3713,130.4583 146.1123,144.0043 138.8743,156.2633 C131.7123,168.3953 121.4533,176.5413 107.5053,180.1633 C105.7053,177.7683 105.6723,175.0953 105.0353,172.5843 C105.5293,172.1473 105.8353,171.6763 106.2503,171.5403 C127.1023,164.6823 135.8943,148.6183 138.8993,128.3663 C140.2663,119.1603 140.0783,109.8483 139.6413,100.1103 L121.5003,100.1103 C120.3593,93.2653 119.2773,86.7863 118.2163,80.4223 C115.8503,79.7563 114.3213,81.0193 112.7013,81.6593 C99.3973,86.9163 86.0763,92.1363 72.8653,97.6213 C68.6053,99.3893 64.3793,100.1483 59.7973,100.0763 C49.0073,99.9073 38.2113,100.0223 26.9013,100.0223 C26.0833,120.0363 25.6983,139.4213 38.1213,156.3093 C43.6123,163.7733 51.0573,168.6243 59.7913,171.4913 C60.3593,174.5583 58.6583,176.8203 58.1763,179.9703 C48.2173,177.3873 40.2853,172.3183 33.7973,164.9613 C25.0393,155.0293 20.5263,143.1993 18.7343,130.2163 C16.9733,117.4533 18.3133,104.6563 17.7673,91.6873 C22.8383,90.7023 27.5203,90.8413 32.0503,91.2533 C54.4843,93.2983 75.5373,89.0783 95.7133,79.0443 C104.9023,74.4733 114.7723,71.2703 125.1303,67.1283" id="Fill-10"></path>
            <path d="M106.8432,121.64 L99.3062,121.64 C98.0272,114.091 103.9102,107.311 112.1802,106.536 C120.7972,105.727 127.8002,112.073 128.1572,121.274 C125.6942,122.369 123.0952,121.767 120.3842,121.693 C118.9962,118.583 117.5132,115.363 113.5302,115.363 C109.5692,115.364 107.8352,118.271 106.8432,121.64" id="Fill-18"></path>
            <path d="M67.4662,121.2738 C65.1322,122.4748 62.6162,121.5098 60.3212,121.9238 C54.4712,113.1118 50.5012,113.0328 45.7682,121.6578 L38.6012,121.6578 C37.3022,114.0508 43.4382,107.0848 51.8132,106.4998 C60.5022,105.8928 67.4382,112.3858 67.4662,121.2738" id="Fill-20"></path>
            <path d="M92.8354,154.996 L73.2664,154.996 C72.6064,152.237 72.7084,149.679 73.2004,146.776 L92.6724,146.776 C93.6234,149.444 93.3904,152.018 92.8354,154.996" id="Fill-28"></path>
        </g>
    </g>
</svg>